<svg xmlns="http://www.w3.org/2000/svg" width="1395.328125px" height="457px" class="sequence hand"><desc>What Happens When an Instant GameplayEffect is Applied?</desc><defs><marker viewBox="0 0 5 5" markerWidth="5" markerHeight="5" orient="auto" refX="5" refY="2.5" id="markerArrowBlock"><path d="M 0 0 L 5 2.5 L 0 5 z"/></marker><marker viewBox="0 0 9.6 16" markerWidth="4" markerHeight="16" orient="auto" refX="9.6" refY="8" id="markerArrowOpen"><path d="M 9.6,8 1.92,16 0,13.7 5.76,8 0,2.286 1.92,0 9.6,8 z"/></marker></defs><g class="title"><path d="M10,10C163.9,-6.0 313.5,26.0 409.3,10.0C408.3,16.5 410.4,14.3 409.3,37.0C238.5,53.0 73.9,21.0 10.0,37.0C8.9,22.7 11.1,29.7 10.0,10.0" stroke="#000000" fill="#ffffff" style="stroke-width: 2;"/><text x="15" y="29" style="font-size: 16px; font-family: danielbd;"><tspan x="15">What Happens When an Instant GameplayEffect is Applied?</tspan></text></g><g class="actor"><path d="M10,47C52.8,42.9 34.9,51.1 113.7,47.0C115.1,59.4 112.2,72.1 113.7,84.0C44.8,79.9 88.8,88.1 10.0,84.0C11.5,55.9 8.5,71.4 10.0,47.0" stroke="#000000" fill="#ffffff" style="stroke-width: 2;"/><text x="21" y="71" style="font-size: 16px; font-family: danielbd;"><tspan x="20">AbilityLogic</tspan></text></g><g class="actor"><path d="M10,400C93.2,395.9 88.8,404.1 113.7,400.0C112.2,408.9 115.1,428.1 113.7,437.0C81.6,441.1 88.8,432.9 10.0,437.0C11.5,428.1 8.5,409.5 10.0,400.0" stroke="#000000" fill="#ffffff" style="stroke-width: 2;"/><text x="21" y="424" style="font-size: 16px; font-family: danielbd;"><tspan x="20">AbilityLogic</tspan></text></g><path d="M61.8,84.0C49.2,255.7 74.5,134.6 61.8,400.0" stroke="#000000" fill="none" style="stroke-width: 2;"/><g class="actor"><path d="M174.921875,47C268.0,51.6 211.3,42.4 288.9,47.0C290.4,55.9 287.4,71.4 288.9,84.0C229.3,88.6 214.5,79.4 174.9,84.0C176.4,65.8 173.4,75.9 174.9,47.0" stroke="#000000" fill="#ffffff" style="stroke-width: 2;"/><text x="185.921875" y="71" style="font-size: 16px; font-family: danielbd;"><tspan x="184.921875">AbilitySystem</tspan></text></g><g class="actor"><path d="M174.921875,400C193.2,404.6 217.0,395.4 288.9,400.0C287.4,420.7 290.4,405.9 288.9,437.0C270.7,432.4 258.0,441.6 174.9,437.0C173.4,416.5 176.4,427.0 174.9,400.0" stroke="#000000" fill="#ffffff" style="stroke-width: 2;"/><text x="185.921875" y="424" style="font-size: 16px; font-family: danielbd;"><tspan x="184.921875">AbilitySystem</tspan></text></g><path d="M231.9,84.0C244.6,349.4 219.3,150.0 231.9,400.0" stroke="#000000" fill="none" style="stroke-width: 2;"/><g class="actor"><path d="M633.9296875,47C834.0,37.5 672.0,56.5 872.1,47.0C873.6,55.9 870.6,55.4 872.1,84.0C754.0,74.5 834.0,93.5 633.9,84.0C632.4,71.6 635.4,52.9 633.9,47.0" stroke="#000000" fill="#ffffff" style="stroke-width: 2;"/><text x="644.9296875" y="71" style="font-size: 16px; font-family: danielbd;"><tspan x="643.9296875">ActiveGameplayEffectsContainer</tspan></text></g><g class="actor"><path d="M633.9296875,400C814.9,409.5 796.0,390.5 872.1,400.0C870.6,407.8 873.6,419.1 872.1,437.0C834.0,427.5 694.5,446.5 633.9,437.0C635.4,408.9 632.4,428.1 633.9,400.0" stroke="#000000" fill="#ffffff" style="stroke-width: 2;"/><text x="644.9296875" y="424" style="font-size: 16px; font-family: danielbd;"><tspan x="643.9296875">ActiveGameplayEffectsContainer</tspan></text></g><path d="M753.0,84.0C765.7,349.4 740.4,142.0 753.0,400.0" stroke="#000000" fill="none" style="stroke-width: 2;"/><g class="actor"><path d="M935.25,47C964.5,50.8 957.9,43.2 1029.8,47.0C1028.3,78.1 1031.3,64.6 1029.8,84.0C967.6,87.8 965.9,80.2 935.3,84.0C936.7,75.1 933.8,61.9 935.3,47.0" stroke="#000000" fill="#ffffff" style="stroke-width: 2;"/><text x="946.25" y="71" style="font-size: 16px; font-family: danielbd;"><tspan x="945.25">Aggregator</tspan></text></g><g class="actor"><path d="M935.25,400C992.7,403.8 977.8,396.2 1029.8,400.0C1031.3,414.5 1028.3,423.0 1029.8,437.0C1005.5,433.2 965.2,440.8 935.3,437.0C936.7,407.7 933.8,429.4 935.3,400.0" stroke="#000000" fill="#ffffff" style="stroke-width: 2;"/><text x="946.25" y="424" style="font-size: 16px; font-family: danielbd;"><tspan x="945.25">Aggregator</tspan></text></g><path d="M982.5,84.0C995.2,349.4 969.9,136.0 982.5,400.0" stroke="#000000" fill="none" style="stroke-width: 2;"/><g class="signal"><text x="72.828125" y="114.5" style="font-size: 16px; font-family: danielbd;"><tspan x="71.828125">Apply GameplayEffect</tspan></text><path d="M61.8,121.0C131.6,127.8 102.7,114.2 231.9,121.0" stroke="#000000" fill="none" style="stroke-width: 2; marker-end: url(&quot;#markerArrowBlock&quot;);"/></g><g class="signal"><text x="315.71875" y="151.5" style="font-size: 16px; font-family: danielbd;"><tspan x="314.71875">Add GameplayEffect to List of Active GameplayEffect</tspan></text><path d="M231.9,158.0C560.9,178.8 411.8,137.2 753.0,158.0" stroke="#000000" fill="none" style="stroke-width: 2; marker-end: url(&quot;#markerArrowBlock&quot;);"/></g><g class="signal"><text x="257.921875" y="191.5" style="font-size: 16px; font-family: danielbd;"><tspan x="256.921875">Register callback for removal of Effect on expiration</tspan></text><path d="M231.9,178.0C240.5,178.8 244.5,177.2 251.9,178.0" stroke="#000000" fill="none" style="stroke-width: 2;"/><path d="M251.9,178.0C251.0,194.7 252.8,190.6 251.9,200.0" stroke="#000000" fill="none" style="stroke-width: 2;"/><path d="M251.9,200.0C235.1,200.8 248.7,199.2 231.9,200.0" stroke="#000000" fill="none" style="stroke-width: 2; marker-end: url(&quot;#markerArrowBlock&quot;);"/></g><g class="signal"><text x="257.921875" y="228.5" style="font-size: 16px; font-family: danielbd;"><tspan x="256.921875">Register callback for removal of associated Cooldown Effect on expiration</tspan></text><path d="M231.9,215.0C236.7,215.8 244.1,214.2 251.9,215.0" stroke="#000000" fill="none" style="stroke-width: 2;"/><path d="M251.9,215.0C251.0,231.7 252.8,220.3 251.9,237.0" stroke="#000000" fill="none" style="stroke-width: 2;"/><path d="M251.9,237.0C236.7,237.8 247.1,236.2 231.9,237.0" stroke="#000000" fill="none" style="stroke-width: 2; marker-end: url(&quot;#markerArrowBlock&quot;);"/></g><g class="signal"><text x="257.921875" y="265.5" style="font-size: 16px; font-family: danielbd;"><tspan x="256.921875">Update Attribute Base</tspan></text><path d="M231.9,252.0C235.1,251.2 243.1,252.8 251.9,252.0" stroke="#000000" fill="none" style="stroke-width: 2;"/><path d="M251.9,252.0C252.8,258.3 251.0,261.8 251.9,274.0" stroke="#000000" fill="none" style="stroke-width: 2;"/><path d="M251.9,274.0C244.0,274.8 246.7,273.2 231.9,274.0" stroke="#000000" fill="none" style="stroke-width: 2; marker-end: url(&quot;#markerArrowBlock&quot;);"/></g><g class="signal"><text x="764.015625" y="299.5" style="font-size: 16px; font-family: danielbd;"><tspan x="763.015625">Mark Attribute Aggregator dirty</tspan></text><path d="M753.0,306.0C824.1,315.2 945.8,296.8 982.5,306.0" stroke="#000000" fill="none" style="stroke-width: 2; marker-end: url(&quot;#markerArrowBlock&quot;);"/></g><g class="signal"><text x="1008.515625" y="339.5" style="font-size: 16px; font-family: danielbd;"><tspan x="1007.515625">Re-calculate new Current Value for Attributes</tspan></text><path d="M982.5,326.0C999.3,325.2 994.8,326.8 1002.5,326.0" stroke="#000000" fill="none" style="stroke-width: 2;"/><path d="M1002.5,326.0C1001.6,329.5 1003.4,331.3 1002.5,348.0" stroke="#000000" fill="none" style="stroke-width: 2;"/><path d="M1002.5,348.0C999.3,348.8 996.2,347.2 982.5,348.0" stroke="#000000" fill="none" style="stroke-width: 2; marker-end: url(&quot;#markerArrowBlock&quot;);"/></g><g class="signal"><text x="494.8671875" y="373.5" style="font-size: 16px; font-family: danielbd;"><tspan x="493.8671875">Update Current Value for attributes</tspan></text><path d="M982.5,380.0C759.5,350.0 862.4,410.0 231.9,380.0" stroke="#000000" fill="none" style="stroke-width: 2; marker-end: url(&quot;#markerArrowBlock&quot;);"/></g></svg>