<svg xmlns="http://www.w3.org/2000/svg" width="912.2734375px" height="531px" class="sequence hand"><desc>Ability Casting (From Casting Ability to Applying GameEffect)</desc><defs><marker viewBox="0 0 5 5" markerWidth="5" markerHeight="5" orient="auto" refX="5" refY="2.5" id="markerArrowBlock"><path d="M 0 0 L 5 2.5 L 0 5 z"/></marker><marker viewBox="0 0 9.6 16" markerWidth="4" markerHeight="16" orient="auto" refX="9.6" refY="8" id="markerArrowOpen"><path d="M 9.6,8 1.92,16 0,13.7 5.76,8 0,2.286 1.92,0 9.6,8 z"/></marker></defs><g class="title"><path d="M10,10C363.9,26.9 331.2,-6.9 432.7,10.0C433.7,32.7 431.6,30.5 432.7,37.0C246.6,20.1 188.9,53.9 10.0,37.0C8.9,25.7 11.1,21.5 10.0,10.0" stroke="#000000" fill="#ffffff" style="stroke-width: 2;"/><text x="16" y="29" style="font-size: 16px; font-family: danielbd;"><tspan x="15">Ability Casting (From Casting Ability to Applying GameEffect)</tspan></text></g><g class="actor"><path d="M10,47C57.5,44.5 25.0,49.5 72.5,47.0C71.1,75.1 74.0,55.9 72.5,84.0C57.9,81.5 20.0,86.5 10.0,84.0C11.5,74.0 8.5,52.9 10.0,47.0" stroke="#000000" fill="#ffffff" style="stroke-width: 2;"/><text x="21" y="71" style="font-size: 16px; font-family: danielbd;"><tspan x="20">Player</tspan></text></g><g class="actor"><path d="M10,474C26.3,476.5 20.0,471.5 72.5,474.0C74.0,502.1 71.1,501.8 72.5,511.0C37.6,508.5 57.5,513.5 10.0,511.0C11.5,482.9 8.5,479.9 10.0,474.0" stroke="#000000" fill="#ffffff" style="stroke-width: 2;"/><text x="21" y="498" style="font-size: 16px; font-family: danielbd;"><tspan x="20">Player</tspan></text></g><path d="M41.3,84.0C25.7,338.1 56.9,368.2 41.3,474.0" stroke="#000000" fill="none" style="stroke-width: 2;"/><g class="actor"><path d="M185.2421875,47C228.9,53.5 211.3,40.5 348.1,47.0C349.6,64.0 346.6,57.5 348.1,84.0C267.0,77.5 224.3,90.5 185.2,84.0C183.8,58.3 186.7,52.9 185.2,47.0" stroke="#000000" fill="#ffffff" style="stroke-width: 2;"/><text x="196.2421875" y="71" style="font-size: 16px; font-family: danielbd;"><tspan x="195.2421875">Player Ability System</tspan></text></g><g class="actor"><path d="M185.2421875,474C309.0,467.5 224.3,480.5 348.1,474.0C349.6,482.9 346.6,479.9 348.1,511.0C224.3,504.5 211.3,517.5 185.2,511.0C186.7,479.9 183.8,505.1 185.2,474.0" stroke="#000000" fill="#ffffff" style="stroke-width: 2;"/><text x="196.2421875" y="498" style="font-size: 16px; font-family: danielbd;"><tspan x="195.2421875">Player Ability System</tspan></text></g><path d="M266.7,84.0C282.3,332.7 251.1,380.4 266.7,474.0" stroke="#000000" fill="none" style="stroke-width: 2;"/><g class="actor"><path d="M466.671875,47C593.8,53.7 506.8,40.3 634.0,47.0C632.5,58.7 635.5,78.1 634.0,84.0C565.5,90.7 539.6,77.3 466.7,84.0C465.2,78.1 468.2,54.7 466.7,47.0" stroke="#000000" fill="#ffffff" style="stroke-width: 2;"/><text x="477.671875" y="71" style="font-size: 16px; font-family: danielbd;"><tspan x="476.671875">Enemy Ability System</tspan></text></g><g class="actor"><path d="M466.671875,474C550.5,480.7 493.4,467.3 634.0,474.0C632.5,500.1 635.5,500.3 634.0,511.0C607.2,517.7 563.9,504.3 466.7,511.0C468.2,502.1 465.2,502.6 466.7,474.0" stroke="#000000" fill="#ffffff" style="stroke-width: 2;"/><text x="477.671875" y="498" style="font-size: 16px; font-family: danielbd;"><tspan x="476.671875">Enemy Ability System</tspan></text></g><path d="M550.3,84.0C534.7,146.4 565.9,177.6 550.3,474.0" stroke="#000000" fill="none" style="stroke-width: 2;"/><g class="actor"><path d="M654,47C670.2,44.3 667.2,49.7 721.3,47.0C719.8,52.9 722.8,55.9 721.3,84.0C705.2,81.3 670.2,86.7 654.0,84.0C655.5,69.7 652.5,71.0 654.0,47.0" stroke="#000000" fill="#ffffff" style="stroke-width: 2;"/><text x="665" y="71" style="font-size: 16px; font-family: danielbd;"><tspan x="664">Ability</tspan></text></g><g class="actor"><path d="M654,474C670.5,476.7 708.4,471.3 721.3,474.0C719.8,479.9 722.8,505.1 721.3,511.0C710.6,508.3 674.0,513.7 654.0,511.0C655.5,491.1 652.5,495.5 654.0,474.0" stroke="#000000" fill="#ffffff" style="stroke-width: 2;"/><text x="665" y="498" style="font-size: 16px; font-family: danielbd;"><tspan x="664">Ability</tspan></text></g><path d="M687.7,84.0C672.1,374.4 703.3,274.6 687.7,474.0" stroke="#000000" fill="none" style="stroke-width: 2;"/><g class="actor"><path d="M778.6171875,47C817.6,42.9 819.7,51.1 882.3,47.0C883.8,78.1 880.8,68.4 882.3,84.0C803.5,88.1 856.1,79.9 778.6,84.0C777.1,71.8 780.1,71.8 778.6,47.0" stroke="#000000" fill="#ffffff" style="stroke-width: 2;"/><text x="789.6171875" y="71" style="font-size: 16px; font-family: danielbd;"><tspan x="788.6171875">AbilityLogic</tspan></text></g><g class="actor"><path d="M778.6171875,474C860.6,469.9 795.2,478.1 882.3,474.0C880.8,485.2 883.8,479.9 882.3,511.0C803.5,506.9 795.2,515.1 778.6,511.0C780.1,496.4 777.1,497.4 778.6,474.0" stroke="#000000" fill="#ffffff" style="stroke-width: 2;"/><text x="789.6171875" y="498" style="font-size: 16px; font-family: danielbd;"><tspan x="788.6171875">AbilityLogic</tspan></text></g><path d="M830.4,84.0C846.0,244.1 814.8,380.4 830.4,474.0" stroke="#000000" fill="none" style="stroke-width: 2;"/><g class="signal"><text x="51.2734375" y="114.5" style="font-size: 16px; font-family: danielbd;"><tspan x="51.2734375">I want to cast Ability on Enemy</tspan></text><path d="M41.3,121.0C107.1,112.0 129.1,130.0 266.7,121.0" stroke="#000000" fill="none" style="stroke-width: 2; marker-end: url(&quot;#markerArrowBlock&quot;);"/></g><g class="signal"><text x="291.6796875" y="154.5" style="font-size: 16px; font-family: danielbd;"><tspan x="291.6796875">Check if Player can activate Ability</tspan></text><path d="M266.7,141.0C273.3,140.2 283.5,141.8 286.7,141.0" stroke="#000000" fill="none" style="stroke-width: 2;"/><path d="M286.7,141.0C285.8,153.7 287.6,155.7 286.7,163.0" stroke="#000000" fill="none" style="stroke-width: 2;"/><path d="M286.7,163.0C269.9,163.8 271.7,162.2 266.7,163.0" stroke="#000000" fill="none" style="stroke-width: 2; marker-end: url(&quot;#markerArrowBlock&quot;);"/></g><g class="signal"><text x="335" y="188.5" style="font-size: 16px; font-family: danielbd;"><tspan x="335">Is Ability available for activation by Player?</tspan></text><path d="M266.7,195.0C452.7,211.8 334.0,178.2 687.7,195.0" stroke="#000000" fill="none" style="stroke-width: 2; marker-end: url(&quot;#markerArrowBlock&quot;);"/></g><g class="signal"><text x="416.796875" y="225.5" style="font-size: 16px; font-family: danielbd;"><tspan x="415.796875">Ability is available</tspan></text><path d="M687.7,232.0C586.6,248.8 611.5,215.2 266.7,232.0" stroke="#000000" fill="none" style="stroke-width: 2; marker-end: url(&quot;#markerArrowBlock&quot;);"/></g><g class="signal"><text x="292.6796875" y="265.5" style="font-size: 16px; font-family: danielbd;"><tspan x="291.6796875">Add Ability to list of running abilities</tspan></text><path d="M266.7,252.0C271.9,251.2 281.9,252.8 286.7,252.0" stroke="#000000" fill="none" style="stroke-width: 2;"/><path d="M286.7,252.0C285.8,266.0 287.6,268.7 286.7,274.0" stroke="#000000" fill="none" style="stroke-width: 2;"/><path d="M286.7,274.0C283.5,274.8 277.8,273.2 266.7,274.0" stroke="#000000" fill="none" style="stroke-width: 2; marker-end: url(&quot;#markerArrowBlock&quot;);"/></g><g class="signal"><text x="425.40625" y="299.5" style="font-size: 16px; font-family: danielbd;"><tspan x="424.40625">Activate Ability</tspan></text><path d="M266.7,306.0C598.6,322.8 334.0,289.2 687.7,306.0" stroke="#000000" fill="none" style="stroke-width: 2; marker-end: url(&quot;#markerArrowBlock&quot;);"/></g><g class="signal"><text x="712.6640625" y="339.5" style="font-size: 16px; font-family: danielbd;"><tspan x="712.6640625">Commit Ability</tspan></text><path d="M687.7,326.0C702.9,326.8 699.0,325.2 707.7,326.0" stroke="#000000" fill="none" style="stroke-width: 2;"/><path d="M707.7,326.0C708.5,340.5 706.8,342.7 707.7,348.0" stroke="#000000" fill="none" style="stroke-width: 2;"/><path d="M707.7,348.0C690.9,347.2 696.9,348.8 687.7,348.0" stroke="#000000" fill="none" style="stroke-width: 2; marker-end: url(&quot;#markerArrowBlock&quot;);"/></g><g class="signal"><text x="725.5625" y="373.5" style="font-size: 16px; font-family: danielbd;"><tspan x="724.5625">Run Logic</tspan></text><path d="M687.7,380.0C788.5,374.3 774.0,385.7 830.4,380.0" stroke="#000000" fill="none" style="stroke-width: 2; marker-end: url(&quot;#markerArrowBlock&quot;);"/></g><g class="signal"><text x="485.453125" y="410.5" style="font-size: 16px; font-family: danielbd;"><tspan x="484.453125">Apply GameEffects</tspan></text><path d="M830.4,417.0C458.6,394.4 408.7,439.6 266.7,417.0" stroke="#000000" fill="none" style="stroke-width: 2; marker-end: url(&quot;#markerArrowBlock&quot;);"/></g><g class="signal"><text x="627.28125" y="447.5" style="font-size: 16px; font-family: danielbd;"><tspan x="626.28125">Apply GameEffects</tspan></text><path d="M830.4,454.0C785.6,442.8 678.4,465.2 550.3,454.0" stroke="#000000" fill="none" style="stroke-width: 2; marker-end: url(&quot;#markerArrowBlock&quot;);"/></g></svg>