<svg xmlns="http://www.w3.org/2000/svg" width="1395.328125px" height="420px" class="sequence hand"><desc>What Happens When a Durational GameplayEffect is Applied?</desc><defs><marker viewBox="0 0 5 5" markerWidth="5" markerHeight="5" orient="auto" refX="5" refY="2.5" id="markerArrowBlock"><path d="M 0 0 L 5 2.5 L 0 5 z"/></marker><marker viewBox="0 0 9.6 16" markerWidth="4" markerHeight="16" orient="auto" refX="9.6" refY="8" id="markerArrowOpen"><path d="M 9.6,8 1.92,16 0,13.7 5.76,8 0,2.286 1.92,0 9.6,8 z"/></marker></defs><g class="title"><path d="M10,10C148.5,-6.6 148.3,26.6 426.2,10.0C427.3,16.5 425.1,30.5 426.2,37.0C194.9,53.6 312.0,20.4 10.0,37.0C8.9,18.4 11.1,32.7 10.0,10.0" stroke="#000000" fill="#ffffff" style="stroke-width: 2;"/><text x="15" y="29" style="font-size: 16px; font-family: danielbd;"><tspan x="15">What Happens When a Durational GameplayEffect is Applied?</tspan></text></g><g class="actor"><path d="M10,47C88.8,51.1 44.1,42.9 113.7,47.0C112.2,57.4 115.1,72.1 113.7,84.0C32.5,88.1 46.6,79.9 10.0,84.0C11.5,55.6 8.5,56.5 10.0,47.0" stroke="#000000" fill="#ffffff" style="stroke-width: 2;"/><text x="21" y="71" style="font-size: 16px; font-family: danielbd;"><tspan x="20">AbilityLogic</tspan></text></g><g class="actor"><path d="M10,363C78.0,358.9 59.9,367.1 113.7,363.0C112.2,391.1 115.1,377.8 113.7,400.0C75.5,404.1 64.7,395.9 10.0,400.0C8.5,388.3 11.5,371.9 10.0,363.0" stroke="#000000" fill="#ffffff" style="stroke-width: 2;"/><text x="21" y="387" style="font-size: 16px; font-family: danielbd;"><tspan x="20">AbilityLogic</tspan></text></g><path d="M61.8,84.0C73.0,293.2 50.7,263.1 61.8,363.0" stroke="#000000" fill="none" style="stroke-width: 2;"/><g class="actor"><path d="M174.921875,47C261.1,42.4 253.8,51.6 288.9,47.0C287.4,78.1 290.4,58.1 288.9,84.0C195.8,79.4 251.5,88.6 174.9,84.0C176.4,52.9 173.4,55.9 174.9,47.0" stroke="#000000" fill="#ffffff" style="stroke-width: 2;"/><text x="185.921875" y="71" style="font-size: 16px; font-family: danielbd;"><tspan x="184.921875">AbilitySystem</tspan></text></g><g class="actor"><path d="M174.921875,363C246.6,367.6 202.3,358.4 288.9,363.0C287.4,379.7 290.4,372.8 288.9,400.0C267.2,395.4 193.2,404.6 174.9,400.0C173.4,391.1 176.4,388.4 174.9,363.0" stroke="#000000" fill="#ffffff" style="stroke-width: 2;"/><text x="185.921875" y="387" style="font-size: 16px; font-family: danielbd;"><tspan x="184.921875">AbilitySystem</tspan></text></g><path d="M231.9,84.0C220.8,293.0 243.1,192.6 231.9,363.0" stroke="#000000" fill="none" style="stroke-width: 2;"/><g class="actor"><path d="M633.9296875,47C804.0,37.5 691.1,56.5 872.1,47.0C873.6,69.2 870.6,62.6 872.1,84.0C834.0,74.5 720.3,93.5 633.9,84.0C632.4,75.1 635.4,78.1 633.9,47.0" stroke="#000000" fill="#ffffff" style="stroke-width: 2;"/><text x="644.9296875" y="71" style="font-size: 16px; font-family: danielbd;"><tspan x="643.9296875">ActiveGameplayEffectsContainer</tspan></text></g><g class="actor"><path d="M633.9296875,363C672.0,353.5 834.0,372.5 872.1,363.0C873.6,372.9 870.6,384.1 872.1,400.0C818.5,390.5 672.0,409.5 633.9,400.0C635.4,371.9 632.4,391.1 633.9,363.0" stroke="#000000" fill="#ffffff" style="stroke-width: 2;"/><text x="644.9296875" y="387" style="font-size: 16px; font-family: danielbd;"><tspan x="643.9296875">ActiveGameplayEffectsContainer</tspan></text></g><path d="M753.0,84.0C741.9,213.7 764.2,224.2 753.0,363.0" stroke="#000000" fill="none" style="stroke-width: 2;"/><g class="actor"><path d="M935.25,47C957.9,43.2 976.6,50.8 1029.8,47.0C1028.3,75.1 1031.3,78.1 1029.8,84.0C968.8,80.2 976.6,87.8 935.3,84.0C936.7,75.1 933.8,78.1 935.3,47.0" stroke="#000000" fill="#ffffff" style="stroke-width: 2;"/><text x="946.25" y="71" style="font-size: 16px; font-family: danielbd;"><tspan x="945.25">Aggregator</tspan></text></g><g class="actor"><path d="M935.25,363C957.9,359.2 978.6,366.8 1029.8,363.0C1028.3,374.3 1031.3,371.9 1029.8,400.0C957.9,396.2 950.4,403.8 935.3,400.0C936.7,368.9 933.8,379.1 935.3,363.0" stroke="#000000" fill="#ffffff" style="stroke-width: 2;"/><text x="946.25" y="387" style="font-size: 16px; font-family: danielbd;"><tspan x="945.25">Aggregator</tspan></text></g><path d="M982.5,84.0C993.7,215.5 971.4,176.8 982.5,363.0" stroke="#000000" fill="none" style="stroke-width: 2;"/><g class="signal"><text x="72.828125" y="114.5" style="font-size: 16px; font-family: danielbd;"><tspan x="71.828125">Apply GameplayEffect</tspan></text><path d="M61.8,121.0C204.7,114.2 105.6,127.8 231.9,121.0" stroke="#000000" fill="none" style="stroke-width: 2; marker-end: url(&quot;#markerArrowBlock&quot;);"/></g><g class="signal"><text x="315.71875" y="151.5" style="font-size: 16px; font-family: danielbd;"><tspan x="314.71875">Add GameplayEffect to List of Active GameplayEffect</tspan></text><path d="M231.9,158.0C373.2,137.2 550.9,178.8 753.0,158.0" stroke="#000000" fill="none" style="stroke-width: 2; marker-end: url(&quot;#markerArrowBlock&quot;);"/></g><g class="signal"><text x="257.921875" y="191.5" style="font-size: 16px; font-family: danielbd;"><tspan x="256.921875">Register callback for removal of Effect on expiration</tspan></text><path d="M231.9,178.0C240.6,177.2 248.7,178.8 251.9,178.0" stroke="#000000" fill="none" style="stroke-width: 2;"/><path d="M251.9,178.0C251.0,184.2 252.8,194.7 251.9,200.0" stroke="#000000" fill="none" style="stroke-width: 2;"/><path d="M251.9,200.0C244.1,200.8 236.7,199.2 231.9,200.0" stroke="#000000" fill="none" style="stroke-width: 2; marker-end: url(&quot;#markerArrowBlock&quot;);"/></g><g class="signal"><text x="257.921875" y="228.5" style="font-size: 16px; font-family: danielbd;"><tspan x="256.921875">Register callback for removal of associated Cooldown Effect on expiration</tspan></text><path d="M231.9,215.0C245.5,215.8 237.7,214.2 251.9,215.0" stroke="#000000" fill="none" style="stroke-width: 2;"/><path d="M251.9,215.0C251.0,233.5 252.8,223.9 251.9,237.0" stroke="#000000" fill="none" style="stroke-width: 2;"/><path d="M251.9,237.0C235.8,236.2 236.7,237.8 231.9,237.0" stroke="#000000" fill="none" style="stroke-width: 2; marker-end: url(&quot;#markerArrowBlock&quot;);"/></g><g class="signal"><text x="764.015625" y="262.5" style="font-size: 16px; font-family: danielbd;"><tspan x="763.015625">Mark Attribute Aggregator dirty</tspan></text><path d="M753.0,269.0C927.4,259.8 945.8,278.2 982.5,269.0" stroke="#000000" fill="none" style="stroke-width: 2; marker-end: url(&quot;#markerArrowBlock&quot;);"/></g><g class="signal"><text x="1008.515625" y="302.5" style="font-size: 16px; font-family: danielbd;"><tspan x="1007.515625">Re-calculate new Current Value for Attributes</tspan></text><path d="M982.5,289.0C988.8,289.8 989.8,288.2 1002.5,289.0" stroke="#000000" fill="none" style="stroke-width: 2;"/><path d="M1002.5,289.0C1001.6,300.4 1003.4,296.0 1002.5,311.0" stroke="#000000" fill="none" style="stroke-width: 2;"/><path d="M1002.5,311.0C993.3,311.8 999.3,310.2 982.5,311.0" stroke="#000000" fill="none" style="stroke-width: 2; marker-end: url(&quot;#markerArrowBlock&quot;);"/></g><g class="signal"><text x="494.8671875" y="336.5" style="font-size: 16px; font-family: danielbd;"><tspan x="493.8671875">Update Current Value for attributes</tspan></text><path d="M982.5,343.0C752.9,313.0 802.4,373.0 231.9,343.0" stroke="#000000" fill="none" style="stroke-width: 2; marker-end: url(&quot;#markerArrowBlock&quot;);"/></g></svg>